<svg width="42" height="42" viewBox="0 0 42 42" fill="none" xmlns="http://www.w3.org/2000/svg">
<g id="Group 2096">
<g id="Group 2095">
<path id="Vector" d="M38.7188 13.9453C38.1794 13.9453 37.6706 13.8137 37.2212 13.5822L34.1745 16.1211C33.9533 16.3054 33.6746 16.4062 33.3867 16.4062H27.0703V13.9453H32.9412L35.6126 11.7191C35.4997 11.3878 35.4375 11.0332 35.4375 10.6641C35.4375 8.85478 36.9095 7.38281 38.7188 7.38281C40.528 7.38281 42 8.85478 42 10.6641C42 12.4733 40.528 13.9453 38.7188 13.9453Z" fill="#1E1B1B"/>
<path id="Vector_2" d="M38.7188 24.1992C37.3445 24.1992 36.1656 23.3497 35.6778 22.1484H27.0703V19.6875H35.6778C36.1656 18.4862 37.3445 17.6367 38.7188 17.6367C40.528 17.6367 42 19.1087 42 20.918C42 22.7272 40.528 24.1992 38.7188 24.1992Z" fill="#1E1B1B"/>
<path id="Vector_3" d="M34.1745 25.7149L37.2212 28.2539C37.6706 28.0222 38.1794 27.8906 38.7188 27.8906C40.528 27.8906 42 29.3626 42 31.1719C42 32.9812 40.528 34.4531 38.7188 34.4531C36.9095 34.4531 35.4375 32.9812 35.4375 31.1719C35.4375 30.8027 35.4997 30.4481 35.6126 30.1168L32.9412 27.8906H27.0703V25.4297H33.3867C33.6746 25.4297 33.9533 25.5306 34.1745 25.7149Z" fill="#1E1B1B"/>
<path id="Vector_4" d="M32.9766 34.8633C34.7858 34.8633 36.2578 36.3352 36.2578 38.1445C36.2578 39.9538 34.7858 41.4258 32.9766 41.4258C31.6023 41.4258 30.4234 40.5763 29.9356 39.375H27.0703V36.9141H29.9356C30.4234 35.7128 31.6023 34.8633 32.9766 34.8633Z" fill="#1E1B1B"/>
</g>
<path id="Vector_5" d="M12.3047 20.918C12.3047 16.1686 16.1686 12.3047 20.918 12.3047C22.2383 12.3047 23.4899 12.6037 24.6094 13.1369V28.699C23.4899 29.2322 22.2383 29.5312 20.918 29.5312C16.1686 29.5312 12.3047 25.6673 12.3047 20.918Z" fill="#1E1B1B"/>
<path id="Vector_6" d="M23.3789 41.8359H18.457C17.7775 41.8359 17.2266 41.285 17.2266 40.6055V39.0038C14.9176 38.5334 12.708 37.6181 10.7399 36.3165L9.60701 37.4493C9.12647 37.9299 8.34742 37.9299 7.86688 37.4493L4.38662 33.9691C3.90608 33.4886 3.90608 32.7095 4.38662 32.2289L5.51939 31.0961C4.21788 29.1279 3.3025 26.9183 2.83213 24.6094H1.23047C0.550922 24.6094 0 24.0585 0 23.3789V18.457C0 17.7775 0.550922 17.2266 1.23047 17.2266H2.83213C3.3025 14.9176 4.21788 12.708 5.51939 10.7398L4.38654 9.60693C4.15579 9.37617 4.02618 9.06322 4.02618 8.7369C4.02618 8.41058 4.15579 8.09772 4.38654 7.86696L7.86688 4.38662C8.34742 3.90608 9.12647 3.90608 9.60701 4.38662L10.7399 5.51939C12.708 4.21788 14.9176 3.30258 17.2266 2.83213V1.23047C17.2266 0.550922 17.7775 0 18.457 0H23.3789C24.0585 0 24.6094 0.550922 24.6094 1.23047V10.4772C23.4542 10.0675 22.2118 9.84375 20.918 9.84375C14.8116 9.84375 9.84375 14.8116 9.84375 20.918C9.84375 27.0243 14.8116 31.9922 20.918 31.9922C22.2118 31.9922 23.4542 31.7684 24.6094 31.3587V40.6055C24.6094 41.285 24.0585 41.8359 23.3789 41.8359Z" fill="#1E1B1B"/>
</g>
</svg>
