<svg width="25" height="24" viewBox="0 0 25 24" fill="none" xmlns="http://www.w3.org/2000/svg">
<g id="Twitter / Negative" clip-path="url(#clip0_34_35)">
<path id="Vector" d="M8.21666 21.75C17.271 21.75 22.2248 14.2467 22.2248 7.74186C22.2248 7.53092 22.2201 7.3153 22.2107 7.10436C23.1744 6.40746 24.006 5.54425 24.6665 4.5553C23.769 4.9546 22.8161 5.21538 21.8404 5.32874C22.8678 4.71291 23.637 3.74547 24.0056 2.60577C23.0391 3.17856 21.9821 3.58261 20.8799 3.80061C20.1373 3.01156 19.1555 2.48912 18.0862 2.31405C17.0169 2.13899 15.9197 2.32105 14.9642 2.8321C14.0088 3.34314 13.2483 4.15471 12.8004 5.14131C12.3524 6.12792 12.2419 7.23462 12.486 8.2903C10.529 8.19209 8.61444 7.6837 6.86649 6.7981C5.11853 5.91249 3.5762 4.66944 2.33947 3.14952C1.7109 4.23324 1.51856 5.51565 1.80153 6.73609C2.08451 7.95654 2.82157 9.02345 3.86291 9.71999C3.08113 9.69517 2.31648 9.48468 1.63213 9.10592V9.16686C1.63143 10.3041 2.0246 11.4066 2.74481 12.2868C3.46503 13.167 4.46783 13.7706 5.58275 13.995C4.85856 14.1931 4.09849 14.222 3.36135 14.0794C3.67596 15.0574 4.28808 15.9129 5.11227 16.5263C5.93647 17.1398 6.93162 17.4806 7.95885 17.5012C6.21493 18.8711 4.06068 19.6141 1.84307 19.6106C1.44979 19.61 1.0569 19.5859 0.666504 19.5384C2.91936 20.9837 5.54004 21.7514 8.21666 21.75Z" fill="white"/>
</g>
<defs>
<clipPath id="clip0_34_35">
<rect width="24" height="24" fill="white" transform="translate(0.666504)"/>
</clipPath>
</defs>
</svg>
